<?xml version="1.0" encoding="utf-8"?>
<!-- Generator: Adobe Illustrator 24.0.1, SVG Export Plug-In . SVG Version: 6.00 Build 0)  -->
<svg version="1.1" id="Layer_1" xmlns="http://www.w3.org/2000/svg" xmlns:xlink="http://www.w3.org/1999/xlink" x="0px" y="0px"
	 viewBox="0 0 963.2 310.5" style="enable-background:new 0 0 963.2 310.5;" xml:space="preserve">
<style type="text/css">
	.st0{fill:#42C7F0;}
	.st1{fill:#1D437F;}
</style>
<g>
	<g>
		<path class="st0" d="M124.6,243.5h-18.6v48.2H97v-48.2H78.3v-7.8h46.3V243.5z"/>
		<path class="st0" d="M153.9,292.1c-4.1,0-7.7-0.8-11-2.4c-3.3-1.6-6.1-3.7-8.4-6.4c-2.4-2.7-4.2-5.8-5.5-9.2
			c-1.3-3.4-1.9-6.9-1.9-10.5c0-3.7,0.7-7.3,2.1-10.7c1.4-3.4,3.3-6.4,5.7-9.1c2.4-2.7,5.3-4.8,8.6-6.3c3.3-1.6,6.9-2.3,10.7-2.3
			c4,0,7.6,0.8,10.9,2.4c3.3,1.6,6.1,3.8,8.4,6.6c2.3,2.7,4.2,5.8,5.4,9.2c1.3,3.4,1.9,6.8,1.9,10.3c0,3.7-0.7,7.3-2,10.7
			c-1.3,3.4-3.2,6.4-5.6,9.1c-2.4,2.7-5.3,4.8-8.6,6.3C161.3,291.3,157.7,292.1,153.9,292.1z M136,263.7c0,2.6,0.4,5.2,1.3,7.7
			c0.8,2.5,2,4.7,3.6,6.6c1.6,1.9,3.4,3.4,5.6,4.5c2.2,1.1,4.7,1.7,7.4,1.7c2.8,0,5.4-0.6,7.6-1.7c2.2-1.2,4.1-2.7,5.6-4.7
			c1.5-2,2.6-4.2,3.4-6.6c0.8-2.4,1.2-4.9,1.2-7.4c0-2.6-0.4-5.2-1.2-7.6c-0.8-2.4-2-4.6-3.6-6.6c-1.6-1.9-3.5-3.4-5.6-4.5
			c-2.2-1.1-4.6-1.7-7.3-1.7c-2.8,0-5.4,0.6-7.6,1.7c-2.2,1.2-4.1,2.7-5.6,4.7c-1.5,1.9-2.7,4.1-3.5,6.6
			C136.4,258.7,136,261.2,136,263.7z"/>
		<path class="st0" d="M213.3,292.1c-4.5,0-8.3-0.8-11.3-2.3c-3.1-1.5-5.6-3.6-7.4-6.2c-1.9-2.6-3.2-5.6-4.1-9
			c-0.9-3.4-1.3-6.9-1.3-10.5v-28.4h8.8v28.4c0,2.6,0.3,5.1,0.8,7.5c0.5,2.4,1.4,4.5,2.5,6.4c1.2,1.9,2.7,3.4,4.7,4.5
			c2,1.1,4.4,1.7,7.3,1.7c2.9,0,5.4-0.6,7.4-1.7c2-1.1,3.5-2.7,4.7-4.6c1.1-1.9,2-4.1,2.5-6.4c0.5-2.4,0.8-4.8,0.8-7.3v-28.4h8.9
			v28.4c0,3.8-0.5,7.5-1.4,10.9c-0.9,3.4-2.3,6.4-4.3,8.9c-1.9,2.6-4.4,4.6-7.5,6C221.4,291.4,217.7,292.1,213.3,292.1z"/>
		<path class="st0" d="M249.3,291.7v-56.1h24.4c2.5,0,4.8,0.5,6.9,1.6c2.1,1.1,3.9,2.4,5.5,4.2c1.6,1.7,2.8,3.7,3.6,5.8
			c0.9,2.2,1.3,4.4,1.3,6.6c0,2.5-0.4,4.8-1.3,7.1c-0.9,2.3-2.2,4.2-3.8,5.8c-1.7,1.6-3.6,2.8-5.8,3.6l13.2,21.3h-9.9l-12.2-19.5
			h-13v19.5H249.3z M258.2,264.4h15.5c1.6,0,3.1-0.5,4.3-1.4c1.3-0.9,2.3-2.2,3-3.8c0.7-1.6,1.1-3.4,1.1-5.3c0-1.9-0.4-3.7-1.3-5.3
			c-0.8-1.6-1.9-2.8-3.3-3.8c-1.3-0.9-2.8-1.4-4.4-1.4h-15V264.4z"/>
		<path class="st0" d="M334.7,248.8c-0.5-0.6-1.3-1.2-2.3-1.9c-1-0.7-2.2-1.3-3.6-1.9c-1.4-0.6-2.8-1.1-4.4-1.4s-3.2-0.6-4.9-0.6
			c-3.7,0-6.4,0.7-8.2,2c-1.8,1.4-2.7,3.3-2.7,5.7c0,1.8,0.5,3.2,1.5,4.2c1,1,2.5,1.9,4.6,2.6s4.6,1.4,7.7,2.2
			c3.8,0.9,7.1,2,9.9,3.2c2.8,1.2,4.9,2.9,6.4,4.9c1.5,2,2.2,4.7,2.2,8.1c0,2.8-0.5,5.3-1.6,7.3c-1.1,2-2.5,3.7-4.4,5
			c-1.9,1.3-4.1,2.2-6.6,2.8c-2.5,0.6-5.1,0.9-8,0.9c-2.8,0-5.6-0.3-8.3-0.9c-2.8-0.6-5.4-1.4-7.9-2.6c-2.5-1.1-4.8-2.5-6.9-4.1
			l4-7.6c0.7,0.7,1.7,1.4,3,2.3c1.3,0.8,2.8,1.6,4.5,2.3c1.7,0.7,3.6,1.4,5.6,1.9c2,0.5,4.1,0.8,6.2,0.8c3.5,0,6.2-0.6,8.1-1.8
			c1.9-1.2,2.8-3,2.8-5.3c0-1.9-0.6-3.4-1.8-4.5c-1.2-1.1-3-2.1-5.3-2.9c-2.3-0.8-5.1-1.6-8.3-2.4c-3.7-1-6.8-2.1-9.2-3.3
			c-2.5-1.2-4.3-2.7-5.6-4.6c-1.2-1.9-1.9-4.2-1.9-7.1c0-3.7,0.9-6.8,2.7-9.3c1.8-2.5,4.2-4.5,7.3-5.7c3.1-1.3,6.5-1.9,10.4-1.9
			c2.5,0,4.9,0.3,7.2,0.8c2.3,0.6,4.4,1.3,6.4,2.3c2,0.9,3.8,2,5.4,3.2L334.7,248.8z"/>
		<path class="st0" d="M383,235.7h8.4l21.8,56.1h-9.3l-5.5-15.2h-22.4l-5.5,15.2H361L383,235.7z M396,269.9l-8.8-24.6l-8.9,24.6H396
			z"/>
		<path class="st0" d="M429,252.1v39.6h-8.8v-56.1h7.3l31.7,40.5v-40.4h8.9v56h-7.7L429,252.1z"/>
		<path class="st0" d="M480.7,291.7v-56.1h19.9c6.1,0,11.1,1.3,15.2,3.8c4.1,2.5,7.1,5.9,9.1,10.1c2,4.2,3,8.9,3,14.1
			c0,5.7-1.1,10.6-3.4,14.8c-2.2,4.2-5.4,7.5-9.5,9.8c-4.1,2.3-8.9,3.5-14.4,3.5H480.7z M518.9,263.6c0-3.9-0.7-7.4-2.2-10.5
			c-1.4-3-3.5-5.4-6.2-7.1c-2.7-1.7-6-2.6-9.9-2.6h-11.1v40.4h11.1c3.9,0,7.3-0.9,10-2.7c2.7-1.8,4.8-4.2,6.2-7.3
			C518.2,270.9,518.9,267.4,518.9,263.6z"/>
		<path class="st0" d="M595.5,243.5h-18.6v48.2h-8.9v-48.2h-18.7v-7.8h46.3V243.5z"/>
		<path class="st0" d="M603,291.7v-56.1h24.4c2.5,0,4.8,0.5,6.9,1.6c2.1,1.1,3.9,2.4,5.5,4.2c1.6,1.7,2.8,3.7,3.6,5.8
			c0.9,2.2,1.3,4.4,1.3,6.6c0,2.5-0.4,4.8-1.3,7.1c-0.9,2.3-2.2,4.2-3.8,5.8c-1.7,1.6-3.6,2.8-5.8,3.6l13.2,21.3H637l-12.2-19.5h-13
			v19.5H603z M611.8,264.4h15.5c1.6,0,3.1-0.5,4.3-1.4c1.3-0.9,2.3-2.2,3-3.8c0.7-1.6,1.1-3.4,1.1-5.3c0-1.9-0.4-3.7-1.3-5.3
			c-0.8-1.6-1.9-2.8-3.3-3.8c-1.3-0.9-2.8-1.4-4.4-1.4h-15V264.4z"/>
		<path class="st0" d="M671.3,235.7h8.4l21.8,56.1h-9.3l-5.5-15.2h-22.4l-5.5,15.2h-9.4L671.3,235.7z M684.4,269.9l-8.8-24.6
			l-8.9,24.6H684.4z"/>
		<path class="st0" d="M707.4,235.7l16.9,45.2l16.8-45.2h9.4l-22,56.1h-8.4L698,235.7H707.4z"/>
		<path class="st0" d="M795.9,283.9v7.8h-38.5v-56.1h37.7v7.8h-28.9v15.9h25v7.3h-25v17.1H795.9z"/>
		<path class="st0" d="M805,291.7v-56.1h8.8v48.2h30.1v7.8H805z"/>
		<path class="st0" d="M884.3,248.8c-0.5-0.6-1.3-1.2-2.3-1.9c-1-0.7-2.2-1.3-3.6-1.9c-1.4-0.6-2.8-1.1-4.4-1.4s-3.2-0.6-4.9-0.6
			c-3.7,0-6.4,0.7-8.2,2c-1.8,1.4-2.7,3.3-2.7,5.7c0,1.8,0.5,3.2,1.5,4.2c1,1,2.5,1.9,4.6,2.6c2.1,0.7,4.6,1.4,7.7,2.2
			c3.8,0.9,7.1,2,9.9,3.2c2.8,1.2,4.9,2.9,6.4,4.9c1.5,2,2.2,4.7,2.2,8.1c0,2.8-0.5,5.3-1.6,7.3c-1.1,2-2.5,3.7-4.4,5
			c-1.9,1.3-4.1,2.2-6.6,2.8c-2.5,0.6-5.1,0.9-8,0.9c-2.8,0-5.6-0.3-8.3-0.9c-2.8-0.6-5.4-1.4-7.9-2.6c-2.5-1.1-4.8-2.5-6.9-4.1
			l4-7.6c0.7,0.7,1.7,1.4,3,2.3c1.3,0.8,2.8,1.6,4.5,2.3c1.7,0.7,3.6,1.4,5.6,1.9c2,0.5,4.1,0.8,6.2,0.8c3.5,0,6.2-0.6,8.1-1.8
			c1.9-1.2,2.8-3,2.8-5.3c0-1.9-0.6-3.4-1.8-4.5c-1.2-1.1-3-2.1-5.3-2.9c-2.3-0.8-5.1-1.6-8.3-2.4c-3.7-1-6.8-2.1-9.2-3.3
			c-2.5-1.2-4.3-2.7-5.6-4.6c-1.2-1.9-1.9-4.2-1.9-7.1c0-3.7,0.9-6.8,2.7-9.3c1.8-2.5,4.2-4.5,7.3-5.7c3.1-1.3,6.5-1.9,10.4-1.9
			c2.5,0,4.9,0.3,7.2,0.8c2.3,0.6,4.4,1.3,6.4,2.3c2,0.9,3.8,2,5.4,3.2L884.3,248.8z"/>
	</g>
	<path class="st1" d="M123.6,107.2C112.8,96.4,99.8,91,84.5,91c-15.4,0-28.7,5.1-39.9,15.4c-11.2,10.3-16.9,22.9-16.9,37.8v92.7
		h24.1v-90.1c0-8.9,3.1-16.4,9.4-22.6c6.2-6.1,13.8-9.2,22.7-9.2c8.7,0,16.2,3,22.4,9.1c6.2,6,9.4,13.3,9.4,21.8
		c0,10.7-3.3,19-9.8,24.8c-5.7,5.2-13,7.7-21.7,7.7c-5.1,0-9.9-1-14.5-3c-4.6-2-8.3-4.7-11.1-8.2v28.8c8.8,4.5,17.4,6.7,25.9,6.7
		c10,0,19.9-3.1,29.7-9.4c8.9-5.6,15.4-12.3,19.5-19.8c4.1-7.6,6.1-16.7,6.1-27.4C139.8,131,134.4,118,123.6,107.2z"/>
	<path class="st1" d="M208.9,86.6c-1.8-0.1-3.3-0.2-4.6-0.2c-5.1,0-9.7,0.7-14,2.2c-4.3,1.4-8.8,3.8-13.7,7.1
		c-7.9,5.4-13.7,11.6-17.3,18.9c-3.6,7.2-5.4,15.8-5.4,25.7V205l27.8,0.1v-67.8c0-4.2,0.9-7.8,2.7-11c1.8-3.2,4.5-6,7.9-8.5
		c4.8-3.5,9.7-5.2,14.9-5.2c2.7,0,5.2,0.3,7.7,1V87.4C212.7,87,210.7,86.7,208.9,86.6z"/>
	<path class="st1" d="M329,106c-10.7-12-25.2-18-43.4-18c-18.6,0-33.4,6.2-44.4,18.6c-9.8,11.1-14.7,24.7-14.7,40.6
		c0,15.8,4.8,29.1,14.4,39.9c10.7,12,25.2,18,43.4,18c18.6,0,33.4-6.2,44.4-18.6c9.8-11.1,14.7-24.7,14.7-40.6
		C343.4,130.1,338.6,116.8,329,106z M311.3,169c-6.3,7.1-14.9,10.7-25.7,10.7c-10.5,0-18.8-3.4-25-10.3c-5.5-6.2-8.2-13.8-8.2-22.8
		c0-9.3,2.9-17.2,8.6-23.7c6.3-7.1,14.9-10.7,25.7-10.7c10.5,0,18.8,3.4,25,10.3c5.4,6.2,8.2,13.8,8.2,22.8
		C319.9,154.6,317.1,162.5,311.3,169z"/>
	<path class="st1" d="M398,53.9c-1.9-2.1-4.5-3.2-7.9-3.2c-3.5,0-6.1,1-7.9,3.1c-1.8,2.1-2.8,4.6-2.8,7.6c0,3,0.9,5.5,2.8,7.6
		c1.9,2.1,4.5,3.1,7.9,3.1s6.1-1.1,8.1-3.4c1.7-1.9,2.6-4.4,2.6-7.4C400.8,58.5,399.9,56,398,53.9z"/>
	<path class="st1" d="M508.2,106c-10.7-12-25.2-18-43.4-18c-18.6,0-33.4,6.2-44.4,18.6c-9.8,11.1-14.7,24.7-14.7,40.6
		c0,15.8,4.8,29.1,14.4,39.9c10.7,12,25.2,18,43.4,18c18.6,0,33.4-6.2,44.4-18.6c9.8-11.1,14.7-24.7,14.7-40.6
		C522.6,130.1,517.8,116.8,508.2,106z M490.5,169c-6.3,7.1-14.9,10.7-25.7,10.7c-10.5,0-18.8-3.4-25-10.3
		c-5.5-6.2-8.2-13.8-8.2-22.8c0-9.3,2.9-17.2,8.6-23.7c6.3-7.1,14.9-10.7,25.7-10.7c10.5,0,18.8,3.4,25,10.3
		c5.4,6.2,8.2,13.8,8.2,22.8C499.2,154.6,496.3,162.5,490.5,169z"/>
	<path class="st1" d="M928,105.8c-10.7-12-25.2-18-43.4-18c-18.6,0-33.4,6.2-44.4,18.6c-9.8,11.1-14.7,24.7-14.7,40.6
		c0,15.8,4.8,29.1,14.4,39.9c10.7,12,25.2,18,43.4,18c18.6,0,33.4-6.2,44.4-18.6c9.8-11.1,14.7-24.7,14.7-40.6
		C942.4,129.9,937.6,116.6,928,105.8z M910.3,168.7c-6.3,7.1-14.9,10.7-25.7,10.7c-10.5,0-18.8-3.4-25-10.3
		c-5.5-6.2-8.2-13.8-8.2-22.8c0-9.3,2.9-17.2,8.6-23.7c6.3-7.1,14.9-10.7,25.7-10.7c10.5,0,18.8,3.4,25,10.3
		c5.4,6.2,8.2,13.8,8.2,22.8C918.9,154.4,916.1,162.3,910.3,168.7z"/>
	<path class="st1" d="M623.6,102.4c-10.1-10.2-22.3-15.3-36.6-15.3c-14.6,0-27,5.1-37.4,15.2c-10.4,10.2-15.5,22.4-15.5,36.8v66
		h26.8v-67.2c0-6.6,2.5-12.3,7.4-16.9c4.9-4.6,10.7-6.9,17.5-6.9c7,0,13.2,2.4,18.4,7c5.2,4.7,7.8,10.4,7.8,17.1v66.8h26.9v-65.9
		C638.7,124.9,633.7,112.6,623.6,102.4z"/>
	<path class="st1" d="M799.7,100c-9.2-8.2-20.2-12.3-32.8-12.3c-6.8,0-12.8,1-17.9,2.9c-5.1,1.9-10.1,5.1-15.1,9.6
		c-5.3-4.8-10.5-8-15.7-9.8c-5.2-1.8-11.5-2.7-18.9-2.7c-12.6,0-23.3,4.6-32,13.7c-8.8,9.1-13.2,20-13.2,32.7v71l27.2,0.1v-72.5
		c0-5.4,1.8-10,5.4-13.8c3.6-3.8,8-5.7,13.3-5.7c5.6,0,10.5,1.9,14.4,5.7c4,3.8,5.9,8.5,5.9,14v72.1h27.6v-72.5
		c0-5.3,1.8-9.8,5.4-13.6c3.6-3.8,7.9-5.7,13.1-5.7c5.4,0,10.1,1.9,14,5.7c3.9,3.8,5.9,8.5,5.9,14v72.1h9.8c6-1.9,11.8-4,17.4-6.1
		v-68.2C813.5,118.5,808.9,108.2,799.7,100z"/>
	<path class="st0" d="M652,49.7c-2.9-2.5-5.8-4.8-8.5-7.3c-4.4-4-8.8-8.1-13.2-12.2c-0.8-0.7-1.4-1.6-2.1-2.5
		c-0.5-0.6-0.4-1,0.3-1.5c2.7-1.9,5.6-2,8.7-1.2c4.1,1.1,7.8,3.2,11.3,5.5c7.8,5.2,15.3,10.8,22.3,17c0.3,0.3,1,0.4,1.5,0.4
		c6.7-1,13.4-1.8,20.1-1.9c2.6,0,5.2,0.1,7.8,0.3c5.1,0.4,8.8,3.3,12.2,6.8c0.2,0.2,0.4,0.5,0.6,0.8c0.9,1.6,0.7,3-0.9,3.8
		c-1.3,0.7-2.7,1.3-4.1,1.5c-4.2,0.7-8.5,1.3-12.7,1.9c-5.5,0.8-10.9,1.6-16.4,2.3c-0.7,0.1-1.1,0.4-1.5,1
		c-6.1,9.1-12.3,18-19.5,26.2c-2.8,3.2-5.8,6.2-8.9,9.1c-1.2,1.1-2.7,2-4.1,2.8c-0.7,0.4-1.5,0.6-2.2,0.7c-1.7,0.2-2.9-1-2.8-2.7
		c0.1-2.6,1-4.9,2.3-7.1c2.4-4.2,5.1-8.2,7.6-12.3c2.7-4.4,5.2-8.9,7.8-13.3c0.2-0.3,0.3-0.6,0.5-1c-2.9,0.1-5.6,0.3-8.3,0.4
		c-7.6,0.3-15.3,0.5-22.9,0.8c-0.5,0-1.1-0.1-1.4-0.4c-6.8-4.9-13.5-9.8-19.5-15.6c-1-1-1.9-2.1-2.7-3.2c-0.8-1.1-0.6-1.7,0.5-2.5
		c1.6-1.2,3.5-1.4,5.5-1.3c2,0.1,3.8,0.8,5.5,2c3.6,2.3,7.3,4.5,10.9,6.7c0.3,0.2,0.7,0.2,1.1,0.2c8.4-1.4,16.7-2.7,25.1-4.1
		C651.6,49.9,651.7,49.8,652,49.7z"/>
	<path class="st1" d="M402.3,81l0,15.2l-1,0.6c-10.6,6-17.6,11.3-21.4,14.3L379.3,82L402.3,81z"/>
	<path class="st0" d="M614.5,69.8c0,0-156.2-4.8-210.3,36.9c0,0-0.7,0.5-2,1.4c-3.8,2.7-12.6,9.1-22.1,18.1c-0.7,0.6-1.3,1.3-2,1.9
		c-18.9,18.4-39.2,46.2-27.7,73.8c2.9,7,9.9,11.6,17.5,11.1c6.3-0.4,12.7-4.4,13.6-18l-1.2-66l1.4-1.3c8.6-8.1,16.7-14.2,20.7-17
		l-0.2,88.6c0,13.8-7.9,20.4-16.4,23.6c-9.6,3.6-19.9,2.7-19.9,2.7c-8.5-0.8-14.4-4.3-18.6-8.8c-2.3-2.5-4-5.2-5.4-7.9
		c-3.6-7.4-4.6-15.8-3.1-24c10.2-54.3,55.8-86.4,106-105.4c0,0,0,0,0.1,0c71.4-27,152-27.4,152-27.4L614.5,69.8z"/>
</g>
</svg>
