<svg viewBox="0 0 1024 300" xmlns="http://www.w3.org/2000/svg">
    <defs>
        <linearGradient x1="50%" y1="100%" x2="50%" y2="0%" id="hero-illustration-a">
            <stop stop-color="#A7FDE8" stop-opacity="0" offset="0"></stop>
            <stop stop-color="#6EFACC" offset="1"></stop>
        </linearGradient>
        <linearGradient x1="100%" y1="50%" x2="0%" y2="50%" id="hero-illustration-b">
            <stop stop-color="#FF4F7A" stop-opacity="0" offset="0"></stop>
            <stop stop-color="#FF4F7A" offset="1"></stop>
        </linearGradient>
        <radialGradient r="100%" id="hero-illustration-c">
            <stop stop-color="#6EFACC" offset="0"></stop>
            <stop stop-color="#6EFACC" stop-opacity="0" offset="1"></stop>
        </radialGradient>
        <linearGradient x1="0%" y1="100%" y2="0%" id="hero-illustration-d">
            <stop stop-color="#007CFE" stop-opacity="0" offset="0"></stop>
            <stop stop-color="#007DFF" offset="1"></stop>
        </linearGradient>
        <linearGradient x1="50%" y1="0%" x2="50%" y2="100%" id="hero-illustration-e">
            <stop stop-color="#FF4F7A" stop-opacity="0" offset="0"></stop>
            <stop stop-color="#FF4F7A" offset="1"></stop>
        </linearGradient>
        <filter x="-500%" y="-500%" width="1000%" height="1000%" filterUnits="objectBoundingBox" id="dropshadow-1">
            <feOffset dy="16" in="SourceAlpha" result="shadowOffsetOuter"></feOffset>
            <feGaussianBlur stdDeviation="24" in="shadowOffsetOuter" result="shadowBlurOuter"></feGaussianBlur>
            <feColorMatrix values="0 0 0 0 0.12 0 0 0 0 0.17 0 0 0 0 0.21 0 0 0 0.2 0" in="shadowBlurOuter"></feColorMatrix>
        </filter>
        <linearGradient gradientUnits="userSpaceOnUse" x1="369.692" y1="-22.665" x2="369.692" y2="277.335" id="gradient-0" gradientTransform="matrix(0.00005, -0.999999, 1.245332, 0.000062, 116.608306, 662.646823)">
            <stop offset="0" style="stop-color: rgb(70.98% 85.882% 89.02%)"></stop>
            <stop offset="1" style="stop-color: rgb(36.001% 50.016% 52.913%)"></stop>
        </linearGradient>
        <linearGradient gradientUnits="userSpaceOnUse" x1="436.371" y1="468.414" x2="436.371" y2="628.414" id="gradient-1" gradientTransform="matrix(0.999985, -0.005502, 0.003288, 0.597599, 4.465945, -126.447577)">
            <stop offset="0" style="stop-color: rgb(96, 221, 211);"></stop>
            <stop offset="1" style="stop-color: rgb(197, 247, 242);"></stop>
        </linearGradient>
        <linearGradient gradientUnits="userSpaceOnUse" x1="420.038" y1="163.223" x2="420.038" y2="251.223" id="gradient-2" gradientTransform="matrix(1, 0, 0, 0.914237, 0, 21.545714)">
            <stop offset="0" style="stop-color: rgb(248, 255, 238);"></stop>
            <stop offset="1" style="stop-color: rgb(190, 190, 190);"></stop>
        </linearGradient>
        <linearGradient gradientUnits="userSpaceOnUse" x1="497.924" y1="29.24" x2="497.924" y2="117.24" id="gradient-3" gradientTransform="matrix(1, 0, 0, 1, 0.000031, -0.000008)">
            <stop offset="0" style="stop-color: rgb(255, 108, 243);"></stop>
            <stop offset="1" style="stop-color: rgb(255, 255, 255);"></stop>
        </linearGradient>
        <linearGradient x1="50%" y1="0%" x2="50%" y2="100%" id="feature-4-a">
            <stop stop-color="#FF4F7A" stop-opacity="0" offset="0"></stop>
            <stop stop-color="#FF4F7A" offset="1"></stop>
        </linearGradient>
        <linearGradient x1="50%" y1="100%" x2="50%" y2="0%" id="feature-4-b">
            <stop stop-color="#007CFE" stop-opacity="0" offset="0"></stop>
            <stop stop-color="#007DFF" offset="1"></stop>
        </linearGradient>
        <linearGradient x1="50%" y1="100%" x2="50%" y2="0%" id="feature-1-a">
            <stop stop-color="#007CFE" stop-opacity="0" offset="0"></stop>
            <stop stop-color="#007DFF" offset="1"></stop>
        </linearGradient>
        <linearGradient x1="50%" y1="0%" x2="50%" y2="100%" id="feature-1-b">
            <stop stop-color="#FF4F7A" stop-opacity="0" offset="0"></stop>
            <stop stop-color="#FF4F7A" offset="1"></stop>
        </linearGradient>
        <linearGradient x1="50%" y1="0%" x2="50%" y2="100%" id="gradient-4">
            <stop stop-color="#FF4F7A" stop-opacity="0" offset="0"></stop>
            <stop stop-color="#FF4F7A" offset="1"></stop>
        </linearGradient>
        <linearGradient x1="50%" y1="0%" x2="50%" y2="100%" id="gradient-5">
            <stop stop-color="#FF4F7A" stop-opacity="0" offset="0"></stop>
            <stop stop-color="#FF4F7A" offset="1"></stop>
        </linearGradient>
        <linearGradient x1="50%" y1="100%" x2="50%" y2="0%" id="gradient-6">
            <stop stop-color="#007CFE" stop-opacity="0" offset="0"></stop>
            <stop stop-color="#007DFF" offset="1"></stop>
        </linearGradient>
        <linearGradient x1="50%" y1="100%" x2="50%" y2="0%" id="gradient-7">
            <stop stop-color="#007CFE" stop-opacity="0" offset="0"></stop>
            <stop stop-color="#007DFF" offset="1"></stop>
        </linearGradient>
        <linearGradient x1="50%" y1="100%" x2="50%" y2="0%" id="gradient-8">
            <stop stop-color="#007CFE" stop-opacity="0" offset="0"></stop>
            <stop stop-color="#007DFF" offset="1"></stop>
        </linearGradient>
        <linearGradient gradientUnits="userSpaceOnUse" x1="730.399" y1="-2.469" x2="730.399" y2="294.531" id="gradient-9" gradientTransform="matrix(-0.001376, -1.010094, 1.191831, -0.000416, 556.825077, 1029.975731)">
            <stop offset="0" style="stop-color: rgb(241, 252, 247);"></stop>
            <stop offset="1" style="stop-color: rgb(166, 255, 217);"></stop>
        </linearGradient>
    </defs>
    <g>
        <rect style="fill: url(#gradient-0); stroke: rgba(0, 0, 0, 0); transform-origin: 0.937px 150.471px;" height="300" transform="matrix(1, -0.00005, 0.00005, 1, -0.936504, -0.4708)" x="0.944" y="0.522" width="1024"></rect>
        <path d="M 307.357 207.109 L 308.772 208.523 L 246.546 270.749 L 245.132 269.334 L 307.357 207.109 Z M 311.6 211.352 L 313.014 212.766 L 250.789 274.991 L 249.375 273.577 L 311.6 211.352 Z M 315.842 215.594 L 317.258 217.009 L 255.031 279.234 L 253.617 277.819 L 315.842 215.594 Z M 320.085 219.837 L 321.5 221.251 L 259.274 283.477 L 257.86 282.062 L 320.085 219.837 Z M 324.328 224.079 L 325.742 225.494 L 263.517 287.719 L 262.103 286.305 L 324.328 224.079 Z M 328.571 228.322 L 329.985 229.736 L 267.759 291.962 L 266.345 290.548 L 328.571 228.322 Z M 332.813 232.565 L 334.227 233.979 L 272.002 296.204 L 270.588 294.79 L 332.813 232.565 Z M 337.056 236.807 L 338.47 238.222 L 276.245 300.447 L 274.83 299.033 L 337.056 236.807 Z" fill="url(#hero-illustration-a)" fill-rule="evenodd"></path>
        <path d="M 353.094 18.883 L 354.508 20.298 L 292.283 82.523 L 290.868 81.109 L 353.094 18.883 Z M 357.337 23.126 L 358.751 24.54 L 296.525 86.766 L 295.111 85.352 L 357.337 23.126 Z M 361.58 27.369 L 362.993 28.783 L 300.768 91.008 L 299.354 89.594 L 361.58 27.369 Z M 365.822 31.611 L 367.236 33.026 L 305.011 95.251 L 303.596 93.837 L 365.822 31.611 Z M 370.064 35.854 L 371.479 37.268 L 309.253 99.494 L 307.839 98.079 L 370.064 35.854 Z M 374.307 40.097 L 375.721 41.511 L 313.496 103.736 L 312.082 102.322 L 374.307 40.097 Z M 378.55 44.339 L 379.964 45.754 L 317.739 107.979 L 316.324 106.565 L 378.55 44.339 Z M 382.792 48.582 L 384.207 49.996 L 321.981 112.222 L 320.567 110.807 L 382.792 48.582 Z" fill="url(#hero-illustration-a)" fill-rule="evenodd"></path>
        <path d="M 278.018 209.939 L 276.604 211.353 L 338.829 273.579 L 340.244 272.164 L 278.018 209.939 Z M 273.776 214.182 L 272.361 215.596 L 334.587 277.821 L 336.001 276.407 L 273.776 214.182 Z M 269.533 218.424 L 268.119 219.839 L 330.344 282.065 L 331.758 280.651 L 269.533 218.424 Z M 265.29 222.667 L 263.876 224.081 L 326.101 286.307 L 327.516 284.892 L 265.29 222.667 Z M 261.047 226.909 L 259.633 228.324 L 321.859 290.549 L 323.273 289.135 L 261.047 226.909 Z M 256.805 231.152 L 255.391 232.566 L 317.616 294.792 L 319.03 293.378 L 256.805 231.152 Z M 252.562 235.395 L 251.148 236.809 L 313.374 299.034 L 314.788 297.62 L 252.562 235.395 Z M 248.32 239.637 L 246.905 241.052 L 309.131 303.277 L 310.545 301.863 L 248.32 239.637 Z" fill="url(#hero-illustration-a)" fill-rule="evenodd" style="fill-rule: evenodd;"></path>
        <path d="M 320.962 19.826 L 319.547 21.241 L 381.773 83.466 L 383.187 82.052 L 320.962 19.826 Z M 316.719 24.069 L 315.305 25.483 L 377.53 87.709 L 378.944 86.295 L 316.719 24.069 Z M 312.476 28.312 L 311.062 29.726 L 373.288 91.951 L 374.702 90.537 L 312.476 28.312 Z M 308.234 32.554 L 306.82 33.969 L 369.045 96.194 L 370.459 94.78 L 308.234 32.554 Z M 303.991 36.797 L 302.577 38.211 L 364.802 100.437 L 366.217 99.022 L 303.991 36.797 Z M 299.749 41.04 L 298.334 42.454 L 360.56 104.679 L 361.974 103.265 L 299.749 41.04 Z M 295.506 45.282 L 294.092 46.697 L 356.317 108.922 L 357.731 107.508 L 295.506 45.282 Z M 291.263 49.525 L 289.849 50.939 L 352.074 113.165 L 353.489 111.75 L 291.263 49.525 Z" fill="url(#hero-illustration-a)" fill-rule="evenodd"></path>
        <path d="M 102.527 279.789 L 103.942 278.375 L 41.716 216.149 L 40.302 217.564 L 102.527 279.789 Z M 106.77 275.546 L 108.184 274.132 L 45.959 211.907 L 44.545 213.321 L 106.77 275.546 Z M 111.012 271.304 L 112.428 269.889 L 50.201 207.664 L 48.787 209.079 L 111.012 271.304 Z M 115.255 267.061 L 116.67 265.647 L 54.444 203.421 L 53.03 204.836 L 115.255 267.061 Z M 119.498 262.819 L 120.912 261.404 L 58.687 199.179 L 57.273 200.593 L 119.498 262.819 Z M 123.741 258.576 L 125.155 257.162 L 62.929 194.936 L 61.515 196.35 L 123.741 258.576 Z M 127.983 254.333 L 129.397 252.919 L 67.172 190.694 L 65.758 192.108 L 127.983 254.333 Z M 132.226 250.091 L 133.64 248.676 L 71.415 186.451 L 70 187.865 L 132.226 250.091 Z" fill="url(#hero-illustration-a)" fill-rule="evenodd"></path>
        <path d="M 77.509 114.241 L 78.923 112.826 L 16.698 50.601 L 15.283 52.015 L 77.509 114.241 Z M 81.752 109.998 L 83.166 108.584 L 20.94 46.358 L 19.526 47.772 L 81.752 109.998 Z M 85.995 105.755 L 87.408 104.341 L 25.183 42.116 L 23.769 43.53 L 85.995 105.755 Z M 90.237 101.513 L 91.651 100.098 L 29.426 37.873 L 28.011 39.287 L 90.237 101.513 Z M 94.479 97.27 L 95.894 95.856 L 33.668 33.63 L 32.254 35.045 L 94.479 97.27 Z M 98.722 93.027 L 100.136 91.613 L 37.911 29.388 L 36.497 30.802 L 98.722 93.027 Z M 102.965 88.785 L 104.379 87.37 L 42.154 25.145 L 40.739 26.559 L 102.965 88.785 Z M 107.207 84.542 L 108.622 83.128 L 46.396 20.902 L 44.982 22.317 L 107.207 84.542 Z" fill="url(#hero-illustration-a)" fill-rule="evenodd"></path>
        <path d="M 72.245 276.958 L 70.831 275.544 L 133.056 213.318 L 134.471 214.733 L 72.245 276.958 Z M 68.003 272.715 L 66.588 271.301 L 128.814 209.076 L 130.228 210.49 L 68.003 272.715 Z M 63.76 268.473 L 62.346 267.058 L 124.571 204.832 L 125.985 206.246 L 63.76 268.473 Z M 59.517 264.23 L 58.103 262.816 L 120.328 200.59 L 121.743 202.005 L 59.517 264.23 Z M 55.274 259.988 L 53.86 258.573 L 116.086 196.348 L 117.5 197.762 L 55.274 259.988 Z M 51.032 255.745 L 49.618 254.331 L 111.843 192.105 L 113.257 193.519 L 51.032 255.745 Z M 46.789 251.502 L 45.375 250.088 L 107.601 187.863 L 109.015 189.277 L 46.789 251.502 Z M 42.547 247.26 L 41.132 245.845 L 103.358 183.62 L 104.772 185.034 L 42.547 247.26 Z" fill="url(#hero-illustration-a)" fill-rule="evenodd"></path>
        <path d="M 48.207 113.299 L 46.792 111.884 L 109.018 49.659 L 110.432 51.073 L 48.207 113.299 Z M 43.964 109.056 L 42.55 107.642 L 104.775 45.416 L 106.189 46.83 L 43.964 109.056 Z M 39.721 104.813 L 38.307 103.399 L 100.533 41.174 L 101.947 42.588 L 39.721 104.813 Z M 35.479 100.571 L 34.065 99.156 L 96.29 36.931 L 97.704 38.345 L 35.479 100.571 Z M 31.236 96.328 L 29.822 94.914 L 92.047 32.688 L 93.462 34.103 L 31.236 96.328 Z M 26.994 92.085 L 25.579 90.671 L 87.805 28.446 L 89.219 29.86 L 26.994 92.085 Z M 22.751 87.843 L 21.337 86.428 L 83.562 24.203 L 84.976 25.617 L 22.751 87.843 Z M 18.508 83.6 L 17.094 82.186 L 79.319 19.96 L 80.734 21.375 L 18.508 83.6 Z" fill="url(#hero-illustration-a)" fill-rule="evenodd"></path>
        <path d="M 495.434 -60.249 L 1023.434 -60.249 L 1023.434 353.751 L 495.434 353.751 L 495.434 -60.249 Z" fill="none" fill-rule="evenodd"></path>
        <path fill="#FFF" d="M 495.434 2.751 L 1023.434 2.751 L 1023.434 299.751 L 495.434 299.751 L 495.434 2.751 Z" style="mix-blend-mode:multiply;filter:url(#dropshadow-1)" fill-rule="evenodd"></path>
        <path d="M 512 0 L 1024 0 L 1024 300 L 512 300 L 512 0 Z" fill-rule="evenodd" style="fill: url(#gradient-9);"></path>
        <path fill="url(#hero-illustration-b)" d="M 246.83 147.11 L 326.83 147.11 L 326.83 195.11 L 246.83 195.11 L 246.83 147.11 Z" fill-rule="evenodd"></path>
        <path d="M 201.057 68.294 L 205.057 68.294 L 205.057 72.294 L 201.057 72.294 L 201.057 68.294 Z M 201.057 80.294 L 205.057 80.294 L 205.057 84.294 L 201.057 84.294 L 201.057 80.294 Z M 201.057 92.294 L 205.057 92.294 L 205.057 96.294 L 201.057 96.294 L 201.057 92.294 Z M 201.057 104.294 L 205.057 104.294 L 205.057 108.294 L 201.057 108.294 L 201.057 104.294 Z M 201.057 116.294 L 205.057 116.294 L 205.057 120.294 L 201.057 120.294 L 201.057 116.294 Z M 201.057 128.294 L 205.057 128.294 L 205.057 132.294 L 201.057 132.294 L 201.057 128.294 Z M 213.057 68.294 L 217.057 68.294 L 217.057 72.294 L 213.057 72.294 L 213.057 68.294 Z M 213.057 80.294 L 217.057 80.294 L 217.057 84.294 L 213.057 84.294 L 213.057 80.294 Z M 213.057 92.294 L 217.057 92.294 L 217.057 96.294 L 213.057 96.294 L 213.057 92.294 Z M 213.057 104.294 L 217.057 104.294 L 217.057 108.294 L 213.057 108.294 L 213.057 104.294 Z M 213.057 116.294 L 217.057 116.294 L 217.057 120.294 L 213.057 120.294 L 213.057 116.294 Z M 213.057 128.294 L 217.057 128.294 L 217.057 132.294 L 213.057 132.294 L 213.057 128.294 Z M 225.057 68.294 L 229.057 68.294 L 229.057 72.294 L 225.057 72.294 L 225.057 68.294 Z M 225.057 80.294 L 229.057 80.294 L 229.057 84.294 L 225.057 84.294 L 225.057 80.294 Z M 225.057 92.294 L 229.057 92.294 L 229.057 96.294 L 225.057 96.294 L 225.057 92.294 Z M 225.057 104.294 L 229.057 104.294 L 229.057 108.294 L 225.057 108.294 L 225.057 104.294 Z M 225.057 116.294 L 229.057 116.294 L 229.057 120.294 L 225.057 120.294 L 225.057 116.294 Z M 225.057 128.294 L 229.057 128.294 L 229.057 132.294 L 225.057 132.294 L 225.057 128.294 Z M 237.057 68.294 L 241.057 68.294 L 241.057 72.294 L 237.057 72.294 L 237.057 68.294 Z M 237.057 80.294 L 241.057 80.294 L 241.057 84.294 L 237.057 84.294 L 237.057 80.294 Z M 237.057 92.294 L 241.057 92.294 L 241.057 96.294 L 237.057 96.294 L 237.057 92.294 Z M 237.057 104.294 L 241.057 104.294 L 241.057 108.294 L 237.057 108.294 L 237.057 104.294 Z M 237.057 116.294 L 241.057 116.294 L 241.057 120.294 L 237.057 120.294 L 237.057 116.294 Z M 237.057 128.294 L 241.057 128.294 L 241.057 132.294 L 237.057 132.294 L 237.057 128.294 Z M 249.057 68.294 L 253.057 68.294 L 253.057 72.294 L 249.057 72.294 L 249.057 68.294 Z M 249.057 80.294 L 253.057 80.294 L 253.057 84.294 L 249.057 84.294 L 249.057 80.294 Z M 249.057 92.294 L 253.057 92.294 L 253.057 96.294 L 249.057 96.294 L 249.057 92.294 Z M 249.057 104.294 L 253.057 104.294 L 253.057 108.294 L 249.057 108.294 L 249.057 104.294 Z M 249.057 116.294 L 253.057 116.294 L 253.057 120.294 L 249.057 120.294 L 249.057 116.294 Z M 249.057 128.294 L 253.057 128.294 L 253.057 132.294 L 249.057 132.294 L 249.057 128.294 Z M 261.057 68.294 L 265.057 68.294 L 265.057 72.294 L 261.057 72.294 L 261.057 68.294 Z M 261.057 80.294 L 265.057 80.294 L 265.057 84.294 L 261.057 84.294 L 261.057 80.294 Z M 261.057 92.294 L 265.057 92.294 L 265.057 96.294 L 261.057 96.294 L 261.057 92.294 Z M 261.057 104.294 L 265.057 104.294 L 265.057 108.294 L 261.057 108.294 L 261.057 104.294 Z M 261.057 116.294 L 265.057 116.294 L 265.057 120.294 L 261.057 120.294 L 261.057 116.294 Z M 261.057 128.294 L 265.057 128.294 L 265.057 132.294 L 261.057 132.294 L 261.057 128.294 Z" fill="url(#hero-illustration-c)" style="transform-box: fill-box; transform-origin: 50% 50%;" fill-rule="evenodd" transform="matrix(0.707107, 0.707107, -0.707107, 0.707107, -0.00001, 0.000003)"></path>
        <path d="M 335.32 105.071 L 495.32 105.071 L 495.32 265.071 L 335.32 265.071 L 335.32 105.071 Z" fill-rule="evenodd" style="fill: url(#gradient-1); transform-box: fill-box; transform-origin: 50% 50%;" transform="matrix(0.623674, -0.781684, 0.781684, 0.623674, 0.000006, 0.000009)"></path>
        <path d="M 135.886 21.581 L 223.886 21.581 L 223.886 45.581 C 223.886 80.927 195.232 109.581 159.886 109.581 L 135.886 109.581 L 135.886 21.581 Z" fill="url(#hero-illustration-d)" fill-rule="evenodd"></path>
        <path d="M 234.944 106.543 C 234.944 80.033 213.454 58.543 186.944 58.543 C 186.944 85.053 208.434 106.543 234.944 106.543 Z" fill="url(#hero-illustration-e)" fill-rule="evenodd"></path>
        <path d="M 453.924 29.24 L 541.924 29.24 L 541.924 117.24 L 453.924 117.24 L 453.924 29.24 Z" fill-rule="evenodd" style="fill: url(#gradient-3); transform-box: fill-box; transform-origin: 50% 50%;" transform="matrix(0.623177, -0.782081, 0.782081, 0.623177, 0.000001, 0.000013)"></path>
        <path d="M 376.038 163.223 L 464.038 251.223 L 376.038 251.223 L 376.038 163.223 Z" fill-rule="evenodd" style="fill: url(#gradient-2);"></path>
        <rect fill="url(#hero-illustration-d)" x="145.528" y="131.751" width="32" height="32" rx="16" fill-rule="evenodd"></rect>
        <path d="M 196.68 257.619 L 212.68 257.619 L 212.68 273.619 C 212.68 282.456 205.517 289.619 196.68 289.619 L 180.68 289.619 L 180.68 273.619 C 180.68 264.782 187.843 257.619 196.68 257.619 Z" fill="url(#feature-4-a)" fill-rule="evenodd"></path>
        <path d="M 188.226 250.108 L 204.226 250.108 L 204.226 266.108 C 204.226 274.945 197.063 282.108 188.226 282.108 L 172.226 282.108 L 172.226 266.108 C 172.226 257.271 179.389 250.108 188.226 250.108 Z" fill="url(#feature-4-b)" fill-rule="evenodd"></path>
        <path d="M 44.377 133.127 L 68.377 133.127 L 68.377 157.127 C 68.377 161.545 64.795 165.127 60.377 165.127 L 36.377 165.127 L 36.377 141.127 C 36.377 136.709 39.959 133.127 44.377 133.127 Z" fill="url(#feature-1-a)" fill-rule="evenodd"></path>
        <path d="M 195.697 142.524 L 195.697 166.524 C 195.697 170.942 192.115 174.524 187.697 174.524 L 163.697 174.524 C 163.697 156.851 178.024 142.524 195.697 142.524 Z" fill="url(#feature-1-b)" fill-rule="evenodd"></path>
        <path d="M 427.358 33.58 L 443.358 33.58 L 443.358 49.58 C 443.358 58.417 436.195 65.58 427.358 65.58 L 411.358 65.58 L 411.358 49.58 C 411.358 40.743 418.521 33.58 427.358 33.58 Z" fill="url(#gradient-4)" fill-rule="evenodd"></path>
        <path d="M 266.038 17.543 L 282.038 17.543 L 282.038 33.543 C 282.038 42.38 274.875 49.543 266.038 49.543 L 250.038 49.543 L 250.038 33.543 C 250.038 24.706 257.201 17.543 266.038 17.543 Z" fill="url(#gradient-5)" fill-rule="evenodd"></path>
        <path d="M 415.095 24.147 L 431.095 24.147 L 431.095 40.147 C 431.095 48.984 423.932 56.147 415.095 56.147 L 399.095 56.147 L 399.095 40.147 C 399.095 31.31 406.258 24.147 415.095 24.147 Z" fill="url(#gradient-6)" fill-rule="evenodd"></path>
        <path d="M 276.416 33.581 L 292.416 33.581 L 292.416 49.581 C 292.416 58.418 285.253 65.581 276.416 65.581 L 260.416 65.581 L 260.416 49.581 C 260.416 40.744 267.579 33.581 276.416 33.581 Z" fill="url(#gradient-7)" fill-rule="evenodd"></path>
        <path d="M 293.397 103.392 L 309.397 103.392 L 309.397 119.392 C 309.397 128.229 302.234 135.392 293.397 135.392 L 277.397 135.392 L 277.397 119.392 C 277.397 110.555 284.56 103.392 293.397 103.392 Z" fill="url(#gradient-8)" fill-rule="evenodd"></path>
    </g>
</svg>
